<svg xmlns="http://www.w3.org/2000/svg" width="174.99" height="43.748" viewBox="0 0 300 75">
  <defs>
    <style>
      .cls-1 {
        fill: #fff;
        fill-rule: evenodd;
      }
    </style>
  </defs>
  <path id="ENI-ENCHERES" class="cls-1" d="M28.191,48.435H21.832V63.713H16.676V36.422H24.2V34.984H16.676V10.842h5.157V26.12h6.359V9.4H8.339v1.438h1.977V63.713H8.339v1.438H28.191V48.435ZM23.422,24.72V10.842h1.59V24.72h-1.59ZM11.907,63.713V10.842H13.5V63.713h-1.59Zm11.516,0V49.873h1.59v13.84h-1.59ZM52,9.4H46.066v1.438h1.977V48.124L39.4,9.4H31.371v1.438h1.977V63.713H31.371v1.438H37.3V63.713H35.325V21.766l9.616,43.386H50.02V10.842H52V9.4Zm-5.389,54.31L34.938,10.842h1.745L48.353,63.713H46.608Zm18.262,0H62.893V10.842H64.87V9.4H54.557v1.438h1.977V63.713H54.557v1.438H64.87V63.713Zm-6.747,0V10.842h1.59V63.713h-1.59ZM71.462,42.526L68.05,52.4H94.183l3.412-9.874H71.462Zm56.221,5.909h-6.359V63.713h-5.157V36.422h7.522V34.984h-7.522V10.842h5.157V26.12h6.359V9.4H107.831v1.438h1.977V63.713h-1.977v1.438h19.852V48.435ZM151.489,9.4h-5.932v1.438h1.977V48.124L138.888,9.4h-8.026v1.438h1.977V63.713h-1.977v1.438h5.932V63.713h-1.977V21.766l9.616,43.386h5.079V10.842h1.977V9.4Zm22.644,39.031h-6.359V60.914a3.18,3.18,0,1,1-6.359,0V13.641a3.18,3.18,0,1,1,6.359,0V26.12h6.359V17.14a7.31,7.31,0,0,0-2.792-5.734,10.687,10.687,0,0,0-13.474,0,7.291,7.291,0,0,0-2.811,5.734V57.415a7.29,7.29,0,0,0,2.811,5.734,10.687,10.687,0,0,0,13.474,0,7.309,7.309,0,0,0,2.792-5.734v-8.98Zm26.6,15.278h-2.016V10.842h2.016V9.4H190.379v1.438H192.4V34.984h-6.359V10.842h1.977V9.4H177.7v1.438h1.977V63.713H177.7v1.438h10.313V63.713h-1.977V36.422H192.4V63.713h-2.016v1.438h10.352V63.713Zm22.217-15.278h-6.359V63.713h-5.157V36.422h7.522V34.984h-7.522V10.842h5.157V26.12h6.359V9.4H203.1v1.438h1.978V63.713H203.1v1.438h19.852V48.435Zm25.784,15.278h-0.155q-1.822,0-1.822-2.138V43.109q0-5.092-5.545-7.425,5.544-2.177,5.545-7.386V17.528a7.31,7.31,0,0,0-2.792-5.734A10.022,10.022,0,0,0,237.216,9.4H226.127v1.438h1.978V63.713h-1.978v1.438h10.314V63.713h-1.978V36.422h2.753a3.182,3.182,0,0,1,3.18,3.188V59.32q0,5.831,5.583,5.831h2.753V63.713Zm-9.267-29.662a3.059,3.059,0,0,1-2.249.933h-2.753V10.842h2.753a3.182,3.182,0,0,1,3.18,3.188V31.8A3.074,3.074,0,0,1,239.465,34.051ZM270.6,48.435h-6.359V63.713h-5.157V36.422h7.522V34.984h-7.522V10.842h5.157V26.12H270.6V9.4H250.748v1.438h1.978V63.713h-1.978v1.438H270.6V48.435Zm22.294,1.05a13.111,13.111,0,0,0-2.055-7.192l-7.948-12.4a12.63,12.63,0,0,1-1.9-6.92v-9.33q0-3.187,2.792-3.188,2.752,0,2.753,3.188V26.12h6.358V17.14a7.481,7.481,0,0,0-2.617-5.754,10.132,10.132,0,0,0-13.028,0,7.484,7.484,0,0,0-2.617,5.754V24.72a13.042,13.042,0,0,0,2.055,7.153l7.949,12.4a12.712,12.712,0,0,1,1.9,6.959v9.68q0,3.188-2.753,3.188-2.791,0-2.792-3.188V48.435h-6.359v8.98a7.483,7.483,0,0,0,2.617,5.754,10.132,10.132,0,0,0,13.028,0,7.48,7.48,0,0,0,2.617-5.754V49.484Z"/>
</svg>
